<svg width="58" height="96" viewBox="0 0 58 96" fill="none" xmlns="http://www.w3.org/2000/svg">
<path fill-rule="evenodd" clip-rule="evenodd" d="M52.1441 63.5651C54.8966 60.168 57.6798 54.5616 57.8685 47.9055C57.9889 43.656 57.6471 40.352 56.4185 37.3381C54.088 31.6215 49.4535 27.6717 44.9571 25.3721C44.9571 25.3721 37.199 21.4531 27.445 17.0432C27.445 17.0432 17.0698 12.6136 10.3404 5.72412C10.3404 5.72412 7.28388 2.184 5.86688 0C5.86688 0 0.0821335 11.6141 0.0821335 18.7001C0.0821335 18.7001 -0.716058 26.2077 2.66413 30.1791C6.04433 34.1506 11.4 36.8166 11.4 36.8166C11.4 36.8166 17.2801 40.1554 26.8891 44.1264C37.1807 48.3316 40.5813 50.9382 40.5813 50.9382C40.5813 50.9382 43.7713 53.4955 46.0331 57.3029C47.6882 60.089 49.0262 63.42 47.4188 67.6364C47.4188 67.6364 49.8061 66.4506 52.1441 63.5651Z" fill="url(#paint0_linear)"/>
<mask id="mask0" mask-type="alpha" maskUnits="userSpaceOnUse" x="0" y="0" width="58" height="68">
<path fill-rule="evenodd" clip-rule="evenodd" d="M52.1441 63.5651C54.8966 60.168 57.6798 54.5616 57.8685 47.9055C57.9889 43.656 57.6471 40.352 56.4185 37.3381C54.088 31.6215 49.4535 27.6717 44.9571 25.3721C44.9571 25.3721 37.199 21.4531 27.445 17.0432C27.445 17.0432 17.0698 12.6136 10.3404 5.72412C10.3404 5.72412 7.28388 2.184 5.86688 0C5.86688 0 0.0821335 11.6141 0.0821335 18.7001C0.0821335 18.7001 -0.716058 26.2077 2.66413 30.1791C6.04433 34.1506 11.4 36.8166 11.4 36.8166C11.4 36.8166 17.2801 40.1554 26.8891 44.1264C37.1807 48.3316 40.5813 50.9382 40.5813 50.9382C40.5813 50.9382 43.7713 53.4955 46.0331 57.3029C47.6882 60.089 49.0262 63.42 47.4188 67.6364C47.4188 67.6364 49.8061 66.4506 52.1441 63.5651Z" fill="white"/>
</mask>
<g mask="url(#mask0)">
<path opacity="0.52746" fill-rule="evenodd" clip-rule="evenodd" d="M5.9204 -0.198364C5.9204 -0.198364 3.48684 9.1703 9.43746 17.7818C12.5062 22.2227 18.6273 26.4866 27.4821 29.5888C34.1634 31.9297 39.4334 33.9563 43.4402 36.3861C55.0408 43.421 57.3272 52.6695 60.5143 59.1875C64.8022 67.9569 46.6149 72.9348 46.6149 72.9348L20.5625 47.7319L-6.66456 31.5391L-7.9707 8.51455L5.9204 -0.198364Z" fill="url(#paint1_linear)"/>
<path fill-rule="evenodd" clip-rule="evenodd" d="M19.2934 47.3115C24.3525 49.6564 27.7877 50.3902 27.7877 50.3902C27.7877 50.3902 35.3224 52.3793 40.6098 50.962C40.6098 50.962 42.5883 52.2807 44.5252 54.5997C46.0699 56.449 47.579 58.9501 48.1029 61.8118C48.1029 61.8118 48.8347 64.7937 47.4297 67.6357C47.4297 67.6357 43.4958 68.8526 39.9838 68.4056C39.9838 68.4056 37.5738 61.6656 25.9838 56.9056C25.9838 56.9056 19.9658 54.3326 13.4838 51.9056C13.4838 51.9056 9.09979 49.6626 9.48379 46.4056C9.48379 46.4056 9.68545 45.2165 11.4838 44.9056C11.9831 44.8193 12.7365 44.8154 13.4838 44.9056C13.4838 44.9056 15.0276 45.3192 19.2934 47.3115Z" fill="url(#paint2_linear)"/>
</g>
<mask id="mask1" mask-type="alpha" maskUnits="userSpaceOnUse" x="9" y="44" width="40" height="25">
<path fill-rule="evenodd" clip-rule="evenodd" d="M19.2934 47.3115C24.3525 49.6564 27.7877 50.3902 27.7877 50.3902C27.7877 50.3902 35.3224 52.3793 40.6098 50.962C40.6098 50.962 42.5883 52.2807 44.5252 54.5997C46.0699 56.449 47.579 58.9501 48.1029 61.8118C48.1029 61.8118 48.8347 64.7937 47.4297 67.6357C47.4297 67.6357 43.4958 68.8526 39.9838 68.4056C39.9838 68.4056 37.5738 61.6656 25.9838 56.9056C25.9838 56.9056 19.9658 54.3326 13.4838 51.9056C13.4838 51.9056 9.09979 49.6626 9.48379 46.4056C9.48379 46.4056 9.68545 45.2165 11.4838 44.9056C11.9831 44.8193 12.7365 44.8154 13.4838 44.9056C13.4838 44.9056 15.0276 45.3192 19.2934 47.3115Z" fill="white"/>
</mask>
<g mask="url(#mask1)">
<path fill-rule="evenodd" clip-rule="evenodd" d="M22.1779 55.4883C22.1779 55.4883 38.4219 63.1816 49.5226 57.1825C60.6234 51.1833 34.8799 49.6895 34.8799 49.6895L11.7656 43.9155L6.69287 48.1664L10.8883 53.1653" fill="url(#paint3_linear)"/>
<path fill-rule="evenodd" clip-rule="evenodd" d="M9.66522 47.0894C9.73122 49.9254 13.4705 51.5297 13.4705 51.5297C13.4705 51.5297 21.4495 54.6947 23.8895 55.7717C23.8895 55.7717 31.6582 58.945 35.5402 62.55C35.5402 62.55 43.1669 69.0017 42.9449 78.5687C42.9449 78.5687 43.053 89.5797 32.417 95.8537C32.417 95.8537 32.9535 86.1937 23.6555 78.4557C23.6555 78.4557 15.2805 71.5767 10.1215 68.0747C10.1215 68.0747 2.89252 63.2977 2.06452 56.5467C2.06452 56.5467 0.982525 48.6497 6.74552 45.1787C6.74552 45.1787 9.70062 43.4837 13.5718 44.9259C13.5718 44.9259 9.59922 44.2534 9.66522 47.0894Z" fill="url(#paint4_linear)"/>
</g>
<mask id="mask2" mask-type="alpha" maskUnits="userSpaceOnUse" x="1" y="44" width="42" height="52">
<path fill-rule="evenodd" clip-rule="evenodd" d="M9.66522 47.0894C9.73122 49.9254 13.4705 51.5297 13.4705 51.5297C13.4705 51.5297 21.4495 54.6947 23.8895 55.7717C23.8895 55.7717 31.6582 58.945 35.5402 62.55C35.5402 62.55 43.1669 69.0017 42.9449 78.5687C42.9449 78.5687 43.053 89.5797 32.417 95.8537C32.417 95.8537 32.9535 86.1937 23.6555 78.4557C23.6555 78.4557 15.2805 71.5767 10.1215 68.0747C10.1215 68.0747 2.89252 63.2977 2.06452 56.5467C2.06452 56.5467 0.982525 48.6497 6.74552 45.1787C6.74552 45.1787 9.70062 43.4837 13.5718 44.9259C13.5718 44.9259 9.59922 44.2534 9.66522 47.0894Z" fill="white"/>
</mask>
<g mask="url(#mask2)">
<g filter="url(#filter0_d)">
<path fill-rule="evenodd" clip-rule="evenodd" d="M39.2464 51.7103C39.2464 51.7103 20.0156 53.541 18.2563 54.149C14.7406 55.3641 6.41742 53.0986 13.8724 57.2949C14.7987 57.8163 16.3919 58.4876 18.2563 59.222C20.5584 60.1287 23.2822 61.1608 25.7737 62.4761C34.08 66.861 37.0026 71.9098 38.5063 76.0779C40.3731 81.2526 37.9525 85.5811 35.9935 90.1328C34.12 94.486 31.3867 97.2953 29.597 99.7348C29.4899 99.8808 28.1934 99.0553 28.1025 99.2063C23.6267 106.643 49.8949 84.1809 49.8949 84.1809L44.1573 61.2887L33.8088 54.149L39.2464 51.7103Z" fill="black" fill-opacity="0.01"/>
</g>
<path fill-rule="evenodd" clip-rule="evenodd" d="M13.4741 44.8827C13.4741 44.8827 12.0739 44.3141 9.82068 44.8827C6.09665 46.0114 1.48362 54.0381 21.6589 60.7034C38.2636 66.9859 40.9153 79.8684 37.3783 88.0865C35.3926 92.7002 31.7511 96.6395 30.1418 99.3135C25.6659 106.751 49.8951 84.181 49.8951 84.181L44.1575 61.2888L33.809 54.1491L13.4741 44.8827Z" fill="url(#paint5_linear)"/>
<path fill-rule="evenodd" clip-rule="evenodd" d="M11.5437 42.3623L24.8031 44.4366C24.8031 44.4366 17.2056 43.4007 12.134 43.9054C10.4274 44.0753 6.97724 44.4486 6.44823 44.9736C2.33876 47.416 -0.755344 60.0218 16.6129 67.0098C40.5206 77.5251 37.6489 86.4012 28.8716 102.217C20.0943 118.033 -14.5093 64.3135 -14.5093 64.3135L-5.63908 39.7582L11.5437 42.3623Z" fill="url(#paint6_linear)"/>
</g>
<defs>
<filter id="filter0_d" x="7.86523" y="44.7103" width="57.0297" height="67.0054" filterUnits="userSpaceOnUse" color-interpolation-filters="sRGB">
<feFlood flood-opacity="0" result="BackgroundImageFix"/>
<feColorMatrix in="SourceAlpha" type="matrix" values="0 0 0 0 0 0 0 0 0 0 0 0 0 0 0 0 0 0 127 0"/>
<feOffset dx="6" dy="2"/>
<feGaussianBlur stdDeviation="4.5"/>
<feColorMatrix type="matrix" values="0 0 0 0 1 0 0 0 0 0.225204 0 0 0 0 0 0 0 0 0.677281 0"/>
<feBlend mode="normal" in2="BackgroundImageFix" result="effect1_dropShadow"/>
<feBlend mode="normal" in="SourceGraphic" in2="effect1_dropShadow" result="shape"/>
</filter>
<linearGradient id="paint0_linear" x1="-5.6621" y1="36.2714" x2="44.0342" y2="64.6648" gradientUnits="userSpaceOnUse">
<stop stop-color="#53FEE4"/>
<stop offset="0.512023" stop-color="#2EA7AF"/>
<stop offset="1" stop-color="#084D78"/>
</linearGradient>
<linearGradient id="paint1_linear" x1="-15.8039" y1="56.029" x2="42.4018" y2="84.0446" gradientUnits="userSpaceOnUse">
<stop stop-color="#60FFE9"/>
<stop offset="0.239679" stop-color="#39BCC0"/>
<stop offset="0.687649" stop-color="#156795"/>
<stop offset="1" stop-color="#0E567E"/>
</linearGradient>
<linearGradient id="paint2_linear" x1="33.7307" y1="66.7907" x2="48.2934" y2="66.7907" gradientUnits="userSpaceOnUse">
<stop stop-color="#830173"/>
<stop offset="1" stop-color="#6F0079"/>
</linearGradient>
<linearGradient id="paint3_linear" x1="5.18417" y1="54.1121" x2="17.4353" y2="73.0227" gradientUnits="userSpaceOnUse">
<stop stop-color="#91007B"/>
<stop offset="0.252014" stop-color="#BC017A"/>
<stop offset="0.411661" stop-color="#D20179"/>
<stop offset="0.665063" stop-color="#BC0179"/>
<stop offset="1" stop-color="#92017A"/>
</linearGradient>
<linearGradient id="paint4_linear" x1="-7.54349" y1="80.3898" x2="37.0881" y2="102.244" gradientUnits="userSpaceOnUse">
<stop stop-color="#FFE249"/>
<stop offset="0.414108" stop-color="#FD9531"/>
<stop offset="0.542223" stop-color="#FE7829"/>
<stop offset="0.659738" stop-color="#FE6824"/>
<stop offset="0.861605" stop-color="#FE5C1F"/>
<stop offset="1" stop-color="#FF4918"/>
</linearGradient>
<linearGradient id="paint5_linear" x1="-4.04842" y1="65.9511" x2="25.6771" y2="102.085" gradientUnits="userSpaceOnUse">
<stop stop-color="#FFE84C"/>
<stop offset="0.660206" stop-color="#FD6F27"/>
<stop offset="1" stop-color="#FE6321"/>
</linearGradient>
<linearGradient id="paint6_linear" x1="-18.1093" y1="67.9159" x2="23.428" y2="105.34" gradientUnits="userSpaceOnUse">
<stop stop-color="#FEEF4C"/>
<stop offset="0.115863" stop-color="#FFF54F"/>
<stop offset="0.580454" stop-color="#FB5B1F"/>
<stop offset="1" stop-color="#FE4819"/>
</linearGradient>
</defs>
</svg>
